PathFileType	4	(X/Y/Z)	C:/Users/beibeiliu/ov580/test_trc/capture2\sequence.36_training_dense_right.trc
DataRate	CameraRate	NumFrames	NumMarkers	Units	OrigDataRate	OrigDataStartFrame	OrigNumFrames
120	120	8	19	mm	120	328	374
Frame#	Time	ThumbCMC			ThumbMCP			ThumbIP			ThumbTip			IndexMCP			IndexPIP			IndexTip			MiddleMCP			MiddlePIP			MiddleTip			RingMCP			RingPIP			RingTip			PinkyMCP			PinkyPIP			PinkyTip			BackHand1			BackHand2			BackHand3	
		X0	Y0	Z0	X1	Y1	Z1	X2	Y2	Z2	X3	Y3	Z3	X4	Y4	Z4	X5	Y5	Z5	X6	Y6	Z6	X7	Y7	Z7	X8	Y8	Z8	X9	Y9	Z9	X10	Y10	Z10	X11	Y11	Z11	X12	Y12	Z12	X13	Y13	Z13	X14	Y14	Z14	X15	Y15	Z15	X16	Y16	Z16	X17	Y17	Z17	X18	Y18	Z18	
327	2.725	163.955	35.33	31.2963	153.15	52.3222	8.3616	150.075	55.1953	-16.3196	146.367	51.9202	-44.1361	174.998	14.3621	-37.1312	148.011	19.9157	-53.4449	126.245	32.6827	-30.0053	165.983	-7.24115	-41.1034	140.438	3.49356	-54.2777	122.947	16.2442	-21.273	156.257	-24.1256	-35.3372	133.774	-10.117	-47.8487	120.638	6.24633	-20.3435	147.805	-38.132	-23.3034	126.557	-24.1172	-37.7259	119.68	-0.451007	-14.7948	172.049	-28.3705	20.004	173.113	-21.1049	48.5172	184.648	2.11061	30.1219	
328	2.73333	163.762	37.4879	32.9209	153.789	47.8014	7.53442	152.591	57.2464	-15.5004	149.813	60.8925	-42.1276	174.884	16.2852	-36.7596	147.619	21.7728	-53.5552	127.106	31.1913	-29.5478	167.529	-6.85163	-40.3142	138.203	6.61282	-51.9416	122.122	15.4273	-22.1949	159.013	-19.6589	-37.3733	131.673	-12.9173	-46.3359	120.752	5.79661	-15.8313	150.77	-35.0044	-21.2041	128.29	-21.3359	-37.2087	117.765	-2.17478	-18.8637	173.915	-25.0118	21.1543	170.774	-23.3894	48.8063	183.496	5.2643	30.3056	
329	2.74167	164.355	37.1154	34.5569	154.312	48.8395	9.294	155.825	61.3407	-15.9336	153.838	60.2372	-39.0855	174.617	13.7585	-35.2947	146.711	21.2172	-53.6575	125.541	27.0481	-26.0163	165.828	-5.67623	-42.4605	136.253	3.96974	-50.993	122.604	17.4599	-21.3696	158.642	-23.7909	-32.1597	129.066	-14.0615	-44.3457	119.129	3.44967	-20.2691	150.52	-38.6076	-21.3464	125.336	-27.8454	-35.8711	119.649	-4.31154	-13.9523	176.343	-22.6935	20.8663	174.235	-23.1649	48.8686	186.932	8.04599	32.4593	
330	2.75	165.278	36.2952	31.3078	157.092	51.4073	9.64777	157.002	58.4413	-13.0748	157.116	66.2889	-40.0022	173.561	13.3977	-35.7621	146.268	18.813	-52.4478	125.63	26.9529	-29.8244	168.041	-3.46632	-41.9851	139.395	2.10978	-52.8137	120.261	12.0905	-23.4744	158.837	-22.7546	-35.865	130.85	-9.41978	-45.2901	119.123	3.97177	-17.247	151.161	-39.7319	-19.3845	127.846	-27.4745	-35.0354	118.792	-4.26087	-13.4421	176.242	-22.2606	21.9054	174.064	-23.7684	48.5842	184.874	8.16677	33.4214	
331	2.75833	164.871	40.1853	38.0656	158.109	51.0247	8.52768	159.269	59.49	-15.2855	159.867	69.2962	-34.7511	173.938	15.8707	-38.9545	146.359	21.5324	-52.8313	124.715	23.2231	-32.0744	168.742	-3.33366	-40.4156	137.415	0.395724	-50.7029	120.577	13.6505	-23.3825	160.454	-22.8465	-30.8756	133.541	-14.6654	-45.3441	117.327	0.242245	-20.6431	151.748	-37.5049	-21.5574	128.225	-27.1084	-34.9799	116.958	-6.40962	-14.6209	176.487	-27.0083	21.492	172.05	-22.9789	53.2173	183.713	4.97884	31.1577	
332	2.76667	164.209	34.5475	37.1891	156.08	50.1657	14.86	160.364	60.9808	-11.6094	161.447	69.3741	-33.9216	176.268	14.8982	-35.9506	150.298	14.8016	-52.6639	125.39	22.218	-33.4233	168.949	-4.61311	-38.3281	139.686	1.14733	-52.055	120.013	11.7829	-19.9975	160.431	-25.6974	-33.1317	134.123	-17.1571	-44.6402	119.284	3.40459	-20.1024	150.288	-40.7361	-22.1042	128.197	-25.234	-33.8581	117.715	-6.17484	-9.43781	177.366	-28.8134	19.9333	173.129	-23.3284	52.7657	183.959	4.09692	36.4589	
333	2.775	164.216	36.4719	38.3235	157.443	48.0344	12.933	158.891	61.4914	-7.86844	160.824	70.5092	-26.7677	176.173	13.7198	-33.0186	154.599	18.8777	-53.1195	125.342	27.2764	-33.7884	169.488	-7.82455	-36.9749	140.07	1.60757	-51.7201	120.856	10.5086	-22.5059	160.728	-24.7415	-34.6838	133.363	-15.3201	-45.3054	118.527	-0.252634	-22.0396	152.909	-36.812	-20.8663	131.293	-29.1015	-34.8745	116.381	-4.03417	-10.8102	176.352	-28.406	21.559	174.526	-23.0423	52.3197	186.712	3.57474	32.4307	
334	2.78333	164.561	34.4854	36.5713	156.263	47.9999	14.1334	159.432	61.3831	-9.18223	161.046	69.3076	-29.8226	177.868	14.2509	-31.2104	151.863	17.1574	-52.4502	124.717	27.033	-33.1214	169.391	-4.66974	-37.3725	145.118	2.75185	-52.7525	120.129	14.1099	-22.3086	161.699	-24.527	-29.4564	133.93	-17.7964	-45.3176	119.802	2.43653	-23.3638	152.365	-39.8501	-17.174	128.449	-26.8919	-34.2447	116.532	-6.96576	-15.1526	174.577	-26.964	22.9959	173.944	-20.3612	54.9286	186.283	4.92729	37.0886	
